<?xml version="1.0" encoding="UTF-8"?>
<svg id="Capa_1" xmlns="http://www.w3.org/2000/svg" version="1.1" viewBox="0 0 1080 1080">
  <!-- Generator: Adobe Illustrator 29.1.0, SVG Export Plug-In . SVG Version: 2.1.0 Build 142)  -->
  <defs>
    <style>
      .st0 {
        fill-rule: evenodd;
      }
    </style>
  </defs>
  <path class="st0" d="M253.4,147.8c-4.4-2.4-8.7-5-13.1-7.4-21.2-11.5-41.9-23-62.6-34.1L28.5,308.8c30.9,30.7,62.9,62.1,95.9,93.5,1.9,1.8,3.8,3.4,5.6,5.2.2-3.7.3-7.5.5-11.4,1.2-36.2,2.6-75,54.2-96.5,35-14.6,38.6-38.4,43-68,3.7-25,7.7-52.7,25.6-83.8"/>
  <path class="st0" d="M264.1,158c-13.4,24.2-16.5,47.6-19.3,68.3-5.4,40.1-9.7,72.5-63.1,93.7-28.9,11.5-29.3,37.4-29.8,61.6-.2,13.3-.4,26.3-3.8,38.3,224.6,208.4,549.1,451.1,862.3,500.3l41-55.6c-149-303.9-504.7-548.3-787.4-706.5"/>
</svg>